HIERARCHY
ROOT Hips
{
	OFFSET 0.00 0.00 0.00
	CHANNELS 6 Xposition Yposition Zposition Yrotation Xrotation Zrotation
	JOINT Spine
	{
		OFFSET	0.0000	9.2263	1.5771
		CHANNELS 3 Xrotation Yrotation Zrotation
		JOINT Spine1
		{
			OFFSET	0.0000	16.2540	-0.1656
			CHANNELS 3 Xrotation Yrotation Zrotation
			JOINT Spine2
			{
				OFFSET	0.0000	13.6396	-1.2923
				CHANNELS 3 Xrotation Yrotation Zrotation
				JOINT Neck
				{
					OFFSET	0.0000	13.8774	-4.3542
					CHANNELS 3 Xrotation Yrotation Zrotation
					JOINT Neck1
					{
						OFFSET	0.0000	4.3400	0.9269
						CHANNELS 3 Xrotation Yrotation Zrotation
						JOINT Head
						{
							OFFSET	0.0000	4.0266	0.8585
							CHANNELS 3 Xrotation Yrotation Zrotation
							End Site
							{
								OFFSET 0.0000 23.0297 0.1231
							}
						}
					}
				}
				JOINT LeftShoulder
				{
					OFFSET	6.1442	10.1870	-3.7932
					CHANNELS 3 Zrotation Xrotation Yrotation
					JOINT LeftArm
					{
						OFFSET	12.3191	-1.1130	-1.7935
						CHANNELS 3 Zrotation Xrotation Yrotation
						JOINT LeftForeArm
						{
							OFFSET	27.6870	0.0000	0.0000
							CHANNELS 3 Xrotation Zrotation Yrotation
							JOINT LeftHand
							{
								OFFSET	27.8738	0.0000	0.0000
								CHANNELS 3 Zrotation Yrotation Xrotation
								JOINT LeftHandThumb1
								{
									OFFSET	2.3785	-1.0029	2.6209
									CHANNELS 3 Zrotation Xrotation Yrotation
									JOINT LeftHandThumb2
									{
										OFFSET	3.3624	-1.0029	2.8398
										CHANNELS 3 Zrotation Xrotation Yrotation
										JOINT LeftHandThumb3
										{
											OFFSET	4.5018	-1.3445	2.1783
											CHANNELS 3 Zrotation Xrotation Yrotation
											End Site
											{
												OFFSET 2.6000 -1.0000 1.0000
											}
										}
									}
								}
								JOINT LeftHandMiddle1
								{
									OFFSET	10.4639	0.6148	0.4298
									CHANNELS 3 Zrotation Xrotation Yrotation
									JOINT LeftHandMiddle2
									{
										OFFSET	5.7921	0.0000	0.0000
										CHANNELS 3 Zrotation Xrotation Yrotation
										JOINT LeftHandMiddle3
										{
											OFFSET	3.7132	0.0000	0.0000
											CHANNELS 3 Zrotation Xrotation Yrotation
											End Site
											{
												OFFSET 2.3000 0.0000 0.0000
											}
										}
									}
								}
								JOINT LeftHandIndex1
								{
									OFFSET	10.3945	0.6148	2.7055
									CHANNELS 3 Zrotation Xrotation Yrotation
									JOINT LeftHandIndex2
									{
										OFFSET	5.5493	0.0000	0.0000
										CHANNELS 3 Zrotation Xrotation Yrotation
										JOINT LeftHandIndex3
										{
											OFFSET	3.3911	0.0000	0.0000
											CHANNELS 3 Zrotation Xrotation Yrotation
											End Site
											{
												OFFSET 2.5000 0.0000 0.0000
											}
										}
									}
								}
								JOINT LeftHandRing1
								{
									OFFSET	10.3252	0.3211	-1.8755
									CHANNELS 3 Zrotation Xrotation Yrotation
									JOINT LeftHandRing2
									{
										OFFSET	5.4452	0.0000	0.0000
										CHANNELS 3 Zrotation Xrotation Yrotation
										JOINT LeftHandRing3
										{
											OFFSET	3.7132	0.0000	0.0000
											CHANNELS 3 Zrotation Xrotation Yrotation
											End Site
											{
												OFFSET 2.0000 0.0000 0.0000
											}
										}
									}
								}
								JOINT LeftHandPinky1
								{
									OFFSET	10.0130	-0.0783	-3.9671
									CHANNELS 3 Zrotation Xrotation Yrotation
									JOINT LeftHandPinky2
									{
										OFFSET	3.6763	0.0000	0.0000
										CHANNELS 3 Zrotation Xrotation Yrotation
										JOINT LeftHandPinky3
										{
											OFFSET	2.8113	0.0000	0.0000
											CHANNELS 3 Zrotation Xrotation Yrotation
											End Site
											{
												OFFSET 2.9000 0.0000 0.0000
											}
										}
									}
								}
							}
						}
					}
				}
				JOINT RightShoulder
				{
					OFFSET	-6.1402	10.1870	-3.7932
					CHANNELS 3 Zrotation Xrotation Yrotation
					JOINT RightArm
					{
						OFFSET	-12.3231	-1.1130	-1.7935
						CHANNELS 3 Zrotation Xrotation Yrotation
						JOINT RightForeArm
						{
							OFFSET	-27.6870	0.0000	0.0000
							CHANNELS 3 Xrotation Zrotation Yrotation
							JOINT RightHand
							{
								OFFSET	-27.8738	0.0000	0.0000
								CHANNELS 3 Zrotation Yrotation Xrotation
								JOINT RightHandThumb1
								{
									OFFSET	-2.5178	-0.9367	2.5137
									CHANNELS 3 Zrotation Xrotation Yrotation
									JOINT RightHandThumb2
									{
										OFFSET	-3.2638	-1.0870	2.9669
										CHANNELS 3 Zrotation Xrotation Yrotation
										JOINT RightHandThumb3
										{
											OFFSET	-4.4165	-1.3703	2.1350
											CHANNELS 3 Zrotation Xrotation Yrotation
											End Site
											{
												OFFSET -2.6000 -1.0000 1.0000
											}
										}
									}
								}
								JOINT RightHandIndex1
								{
									OFFSET	-10.4665	0.4896	2.7120
									CHANNELS 3 Zrotation Xrotation Yrotation
									JOINT RightHandIndex2
									{
										OFFSET	-5.3768	0.0000	0.0000
										CHANNELS 3 Zrotation Xrotation Yrotation
										JOINT RightHandIndex3
										{
											OFFSET	-3.3855	0.0000	0.0000
											CHANNELS 3 Zrotation Xrotation Yrotation
											End Site
											{
												OFFSET -2.6000 0.0000 0.0000
											}
										}
									}
								}
								JOINT RightHandMiddle1
								{
									OFFSET	-10.7596	0.4896	0.4278
									CHANNELS 3 Zrotation Xrotation Yrotation
									JOINT RightHandMiddle2
									{
										OFFSET	-5.6168	0.0000	0.0000
										CHANNELS 3 Zrotation Xrotation Yrotation
										JOINT RightHandMiddle3
										{
											OFFSET	-3.7364	0.0000	0.0000
											CHANNELS 3 Zrotation Xrotation Yrotation
											End Site
											{
												OFFSET -2.3000 0.0000 0.0000
											}
										}
									}
								}
								JOINT RightHandRing1
								{
									OFFSET	-10.4702	0.3879	-1.9363
									CHANNELS 3 Zrotation Xrotation Yrotation
									JOINT RightHandRing2
									{
										OFFSET	-5.4013	0.0000	0.0000
										CHANNELS 3 Zrotation Xrotation Yrotation
										JOINT RightHandRing3
										{
											OFFSET	-3.3916	0.0000	0.0000
											CHANNELS 3 Zrotation Xrotation Yrotation
											End Site
											{
												OFFSET -2.2000 0.0000 0.0000
											}
										}
									}
								}
								JOINT RightHandPinky1
								{
									OFFSET	-9.9715	-0.1191	-3.9540
									CHANNELS 3 Zrotation Xrotation Yrotation
									JOINT RightHandPinky2
									{
										OFFSET	-3.6528	0.0000	0.0000
										CHANNELS 3 Zrotation Xrotation Yrotation
										JOINT RightHandPinky3
										{
											OFFSET	-2.7820	0.0000	0.0000
											CHANNELS 3 Zrotation Xrotation Yrotation
											End Site
											{
												OFFSET -2.9000 0.0000 0.0000
											}
										}
									}
								}
							}
						}
					}
				}
			}
		}
	}
	JOINT LeftUpLeg
	{
		OFFSET	9.6338	-3.2733	0.0000
		CHANNELS 3 Xrotation Yrotation Zrotation
		JOINT LeftLeg
		{
			OFFSET	0.0000	-41.7300	-1.7300
			CHANNELS 3 Xrotation Yrotation Zrotation
			JOINT LeftFoot
			{
				OFFSET	0.0126	-39.1900	-0.8477
				CHANNELS 3 Xrotation Yrotation Zrotation
				JOINT LeftToeBase
				{
					OFFSET	-0.1833	-12.1931	8.2823
					CHANNELS 3 Xrotation Yrotation Zrotation
					End Site
					{
						OFFSET 0.0000 0.0000 10.1681
					}
				}
			}
		}
	}
	JOINT RightUpLeg
	{
		OFFSET	-9.6338	-3.2733	0.0000
		CHANNELS 3 Xrotation Yrotation Zrotation
		JOINT RightLeg
		{
			OFFSET	0.0000	-41.7300	-1.7300
			CHANNELS 3 Xrotation Yrotation Zrotation
			JOINT RightFoot
			{
				OFFSET	0.0126	-39.1900	-0.8477
				CHANNELS 3 Xrotation Yrotation Zrotation
				JOINT RightToeBase
				{
					OFFSET	-0.1833	-12.1931	8.2823
					CHANNELS 3 Xrotation Yrotation Zrotation
					End Site
					{
						OFFSET 0.0032 0.0000 10.1681
					}
				}
			}
		}
	}
}
MOTION
Frames: 4
Frame Time: 0.0333333
2.4732 86.8959 -6.8696 -44.3525 -15.6742 4.8201 11.6190 -2.3724 13.8993 6.6851 -1.3151 5.0769 6.6542 -1.3876 5.0976 -16.8524 -1.4523 12.5954 -0.0000 0.0000 -0.0000 -21.7887 23.0475 4.0560 9.0739 -2.6842 8.7015 -90.8658 6.2787 -35.1512 0.0000 -0.0000 -105.9342 -27.1568 -16.1395 -1.7483 -18.1623 -10.9754 4.9753 2.5118 2.1210 24.5323 16.2240 8.9061 20.0971 -83.2977 0.0141 0.1344 -82.0323 0.0129 -0.0149 -36.5234 0.0029 -0.0089 -78.0351 0.0128 0.1457 -80.0774 0.0124 -0.0148 -17.3574 0.0007 -0.0045 -86.2003 0.0149 -0.3287 -79.3879 0.0123 -0.0148 -43.9749 0.0042 -0.0104 -92.5402 0.0166 -0.7338 -65.0201 0.0087 -0.0136 -37.9447 0.0032 -0.0092 -1.3391 0.2157 6.2124 64.9039 -5.8634 19.2438 0.0000 0.0000 117.8194 4.9893 17.5270 7.9526 16.2238 -6.8788 9.8778 4.2685 9.3473 -38.5591 -4.5504 16.0073 -44.1346 89.3736 0.0082 -0.5593 103.7603 0.0098 0.0077 54.1469 0.0033 0.0064 96.1038 0.0091 -0.0099 98.6920 0.0091 0.0078 54.0566 0.0033 0.0064 101.0723 0.0098 -0.0231 97.1928 0.0089 0.0079 39.9848 0.0019 0.0051 105.0471 0.0103 0.3883 96.2375 0.0088 0.0079 43.6610 0.0022 0.0055 -22.4757 14.5613 16.8369 35.5768 8.9379 0.3244 3.5773 0.1742 -13.3627 1.4573 -0.0001 0.0655 -4.2815 -16.4863 -20.2188 54.9537 -9.9779 1.4686 -31.7410 -13.1211 7.7074 -1.5689 -0.0000 -0.0000 
2.6140 87.2245 -6.8167 -44.6528 -14.7555 3.8381 11.9136 -2.1703 13.6009 6.7836 -1.2487 5.0518 6.7537 -1.3211 5.0732 -16.6413 -1.3738 12.7407 -0.0000 0.0000 -0.0000 -22.0028 23.5829 4.2110 9.3180 -2.7359 9.0552 -91.2300 5.7622 -35.8129 -0.0000 0.0000 -105.2210 -26.7367 -16.6941 -2.2566 -18.4743 -11.0765 4.7662 2.8047 2.1205 23.8765 16.1471 8.8765 20.0149 -83.6058 0.0142 0.0685 -82.1066 0.0130 -0.0149 -36.5449 0.0030 -0.0089 -78.2562 0.0128 0.0747 -80.3707 0.0125 -0.0148 -17.4997 0.0007 -0.0045 -86.3863 0.0150 -0.1900 -79.4184 0.0123 -0.0148 -44.1079 0.0043 -0.0105 -92.6687 0.0166 -0.4160 -65.1020 0.0087 -0.0136 -37.9359 0.0032 -0.0092 -1.4067 0.1962 6.3470 65.4228 -5.6882 20.2664 0.0000 -0.0000 117.5716 4.1704 17.3534 7.0422 16.0857 -7.0427 9.4866 4.5040 9.3469 -39.7656 -5.2993 14.9343 -43.5726 88.8590 0.0081 -0.2962 104.0668 0.0098 0.0077 51.8958 0.0030 0.0062 96.6204 0.0092 0.0137 98.1844 0.0090 0.0078 52.2393 0.0031 0.0062 100.9828 0.0098 -0.1451 96.2129 0.0088 0.0079 39.8597 0.0018 0.0051 104.6580 0.0103 0.2264 95.9242 0.0087 0.0079 42.5061 0.0021 0.0053 -23.2086 14.4761 17.6758 34.6906 9.2777 0.5619 4.4788 0.0270 -13.6930 1.3546 -0.0134 1.5254 -4.4693 -16.3255 -19.4116 53.7606 -10.0240 2.2129 -30.7112 -12.5908 7.8268 -1.5949 0.0000 0.0000 
2.7512 87.5790 -6.7451 -44.9156 -14.0125 3.1953 12.3765 -2.0924 13.3543 6.9717 -1.2484 5.0056 6.9420 -1.3218 5.0283 -16.6126 -1.3307 12.8243 -0.0000 0.0000 -0.0000 -21.7453 23.9645 4.1469 9.5113 -2.7739 9.3828 -91.8012 5.2194 -36.2356 -0.0000 0.0000 -104.9219 -26.2401 -16.6578 -1.8931 -18.7182 -11.1510 4.9451 3.2110 2.1206 22.9879 16.0058 8.7841 19.7586 -83.6543 0.0142 0.0146 -81.4812 0.0128 -0.0149 -36.4339 0.0029 -0.0089 -78.2773 0.0129 0.0171 -79.6129 0.0123 -0.0148 -17.0531 0.0007 -0.0044 -86.1658 0.0148 -0.0776 -78.9885 0.0122 -0.0147 -44.1132 0.0042 -0.0105 -92.5193 0.0165 -0.1582 -64.7957 0.0086 -0.0136 -37.6119 0.0031 -0.0092 -1.4856 0.1847 6.6712 66.1172 -4.7620 22.6919 -0.0000 -0.0000 118.1087 1.6470 17.2575 4.6003 16.3924 -8.5595 8.6534 4.0479 9.3506 -37.4590 -6.4478 13.2603 -42.3025 84.9412 0.0096 0.0217 102.4833 0.0096 0.0077 42.5929 0.0021 0.0054 92.6160 0.0087 0.0249 94.4145 0.0085 0.0079 43.4019 0.0022 0.0054 96.9539 0.0086 -0.2705 90.6910 0.0080 0.0079 34.2106 0.0014 0.0044 101.0994 0.0091 0.0890 93.8449 0.0084 0.0079 37.4635 0.0016 0.0048 -23.4775 14.3560 17.9870 33.6216 9.7947 0.7708 5.0528 -0.0525 -13.7012 1.3608 -0.0247 2.0708 -4.4528 -16.0937 -18.7016 52.4181 -9.9972 2.6303 -29.8258 -12.4206 7.8966 -1.3791 0.0000 0.0000 
2.9083 87.9394 -6.6498 -45.4391 -13.1722 2.8505 12.7422 -1.9473 13.0598 7.1132 -1.2073 4.9205 7.0843 -1.2805 4.9443 -16.4040 -1.2587 12.9839 -0.0000 0.0000 -0.0000 -21.2207 24.5707 4.1133 9.7553 -2.8257 9.6485 -92.1662 4.7405 -36.2877 -0.0000 -0.0000 -104.7049 -24.6948 -16.2936 -1.3915 -19.1635 -10.9430 5.1674 3.7648 2.1196 21.9636 15.7977 8.6390 19.3553 -83.3004 0.0141 -0.0154 -79.8780 0.0124 -0.0148 -36.1737 0.0029 -0.0089 -77.8648 0.0127 -0.0146 -77.3009 0.0117 -0.0147 -15.7337 0.0006 -0.0041 -85.4163 0.0147 -0.0156 -77.7585 0.0118 -0.0147 -43.9889 0.0042 -0.0104 -92.0383 0.0164 -0.0162 -63.8078 0.0084 -0.0135 -36.7544 0.0030 -0.0090 -1.6186 0.1520 7.0377 66.6093 -3.0733 26.6044 0.0000 0.0000 119.4304 -3.3594 15.9982 0.9535 17.9797 -10.6777 7.6676 3.0671 9.2790 -32.4712 -8.0288 10.6496 -38.6457 78.5545 0.0067 0.3881 98.1981 0.0090 0.0078 31.9396 0.0012 0.0042 84.8668 0.0076 0.0002 88.7592 0.0077 0.0079 35.3047 0.0015 0.0046 90.6481 0.0084 -0.3057 83.3697 0.0070 0.0078 28.2281 0.0009 0.0038 95.5518 0.0090 -0.0346 91.4304 0.0081 0.0079 32.3665 0.0012 0.0042 -23.5980 14.3933 18.1492 32.3997 10.0399 0.8082 5.6355 0.2176 -13.8302 1.3080 -0.0311 2.3247 -4.7455 -15.7193 -18.2002 51.1664 -9.9804 2.7529 -28.9244 -12.2757 8.0561 -1.3358 -0.0000 -0.0000 
